<svg xmlns="http://www.w3.org/2000/svg" viewBox="0 0 60 60"><defs><style>.cls-1{fill:#405980;}</style></defs><title>binTransfer</title><g id="Layer_4" data-name="Layer 4"><path class="cls-1" d="M47.73,27A18,18,0,0,0,33,12.27h0V0H0V33H12.27A18,18,0,0,0,27,47.73h0V60H60V27ZM18,3h4V5h4V3h4v9c.53,0,1,0,1.56.08C31,12,30.53,12,30,12a17.89,17.89,0,0,0-9.93,3H18ZM3,3H7V5h4V3h4V15H3Zm9,27H3V18H7v2h4V18h4v2.07A17.89,17.89,0,0,0,12,30c0,.53,0,1,.08,1.56C12,31,12,30.53,12,30Zm3,0A15,15,0,1,1,30,45,15,15,0,0,1,15,30ZM42,57H30V48c-.53,0-1,0-1.56-.08.51,0,1,.08,1.56.08a17.89,17.89,0,0,0,5.86-1H38v-.9A18,18,0,0,0,39.93,45H42Zm15,0H45V45h4v2h4V45h4Zm0-15H45V39.93A17.89,17.89,0,0,0,48,30c0-.53,0-1-.08-1.56,0,.51.08,1,.08,1.56h1v2h4V30h4Z"/><polygon class="cls-1" points="32.33 31.9 39.81 32.26 38.06 24.96 36.15 27.27 27.65 20.29 25.74 22.6 34.24 29.59 32.33 31.9"/><polygon class="cls-1" points="34.28 37.4 25.79 30.4 27.7 28.08 20.17 27.72 21.97 35.02 23.88 32.71 32.37 39.71 34.28 37.4"/></g></svg>