<svg xmlns="http://www.w3.org/2000/svg" viewBox="0 0 60 60"><defs><style>.cls-1{fill:#405980;}</style></defs><title>createInventor</title><g id="Layer_4" data-name="Layer 4"><polygon class="cls-1" points="49 16 44 16 44 11 41 11 41 16 36 16 36 19 41 19 41 24 44 24 44 19 49 19 49 16"/><path class="cls-1" d="M40,41V25H32V9H14V25H7V41H0V60H48V41Zm-3,0H25V28h4v2h4V28h4ZM17,12h4v2h4V12h4V25H17ZM10,28h4v2h4V28h4V41H10Zm5,29H3V44H7v2h4V44h4Zm15,0H18V44h4v2h4V44h4Zm15,0H33V44h4v2h4V44h4Z"/><path class="cls-1" d="M42.5,0A17.51,17.51,0,0,0,27.22,9h3.56A14.53,14.53,0,1,1,40,31.77v3A17.49,17.49,0,1,0,42.5,0Z"/></g></svg>