<svg xmlns="http://www.w3.org/2000/svg" viewBox="0 0 60 60"><defs><style>.cls-1{fill:#fff;}.cls-2{fill:#405980;}</style></defs><title>custom</title><g id="Layer_4" data-name="Layer 4"><g id="mask-2"><path id="path-1" class="cls-1" d="M31.38,27.31l-.59-3.68,2.7-1.93,3.17,1,.59,3.68-2.7,1.94Zm27.35-3.76v4.39a.71.71,0,0,1-.47.67L54.47,30l-.76,2.86,2.6,3.08a.71.71,0,0,1,.07.81l-2.19,3.8a.72.72,0,0,1-.74.34l-4-.7-2.09,2.1.71,4a.71.71,0,0,1-.34.74L44,49.17a.71.71,0,0,1-.81-.07l-3.09-2.59-2.86.77-1.37,3.79a.71.71,0,0,1-.67.47H30.74a.71.71,0,0,1-.61-.46l-1.37-3.79-2.86-.76-3.08,2.6a.71.71,0,0,1-.81.07l-2.3-1.32,2.4-2.06,3-2.58L31,44.8l1.36,3.75h1.19l1.35-3.76,5.87-1.58,3.06,2.57,1-.6-.71-3.93L48.48,37l3.93.7.59-1-2.58-3L52,27.7l3.75-1.36V25.15L52,23.8,50.4,17.93,53,14.87l-.6-1-3.93.71-4.3-4.3.7-3.93-1-.59L40.76,8.31,34.89,6.74,33.52,3H32.34L31,6.75,25.11,8.33,22.06,5.76l-1,.6.71,3.93-4.29,4.31-3.93-.7-.59,1,2.58,3-1.57,5.88-3.75,1.36V26.4l3.76,1.35,1.58,5.87-2.57,3.06L10.86,39l-1.3-2.25A.71.71,0,0,1,9.63,36l2.6-3.09L11.45,30,7.66,28.67A.71.71,0,0,1,7.19,28V23.61a.71.71,0,0,1,.47-.67l3.79-1.38.76-2.86L9.6,15.63a.71.71,0,0,1-.07-.81L11.72,11a.71.71,0,0,1,.74-.34l4,.7,2.09-2.1-.71-4a.71.71,0,0,1,.34-.74l3.79-2.2a.71.71,0,0,1,.81.07L25.84,5l2.86-.77L30.07.47A.71.71,0,0,1,30.73,0h4.39a.7.7,0,0,1,.67.47l1.38,3.79L40,5l3.08-2.6a.71.71,0,0,1,.81-.07l3.8,2.19a.71.71,0,0,1,.34.74l-.7,4,2.1,2.09,4-.71a.71.71,0,0,1,.74.34l2.2,3.79a.71.71,0,0,1-.07.81l-2.6,3.09.77,2.86,3.79,1.37A.71.71,0,0,1,58.73,23.55Zm-24.27,7,9.89-7.06A12.88,12.88,0,0,1,44.61,26a12.16,12.16,0,0,1-11.9,12.39A11.45,11.45,0,0,1,27,36.88L7.37,58.62a4.27,4.27,0,0,1-6.32,0,4.39,4.39,0,0,1,.17-5.87L21.58,30.34A12.74,12.74,0,0,1,20.82,26a12.16,12.16,0,0,1,11.9-12.39,11.47,11.47,0,0,1,6.5,2L28.75,23.13l.82,5.74ZM5.16,56.63,24.62,35.08a12.26,12.26,0,0,1-1.6-1.9L3.4,54.72a1.43,1.43,0,0,0-.14,1.86,1.29,1.29,0,0,0,1,.44A1.27,1.27,0,0,0,5.16,56.63Z"/></g><g id="custom"><g id="Combined-Shape"><path id="path-1-2" data-name="path-1" class="cls-2" d="M31.38,27.31l-.59-3.68,2.7-1.93,3.17,1,.59,3.68-2.7,1.94Zm27.35-3.76v4.39a.71.71,0,0,1-.47.67L54.47,30l-.76,2.86,2.6,3.08a.71.71,0,0,1,.07.81l-2.19,3.8a.72.72,0,0,1-.74.34l-4-.7-2.09,2.1.71,4a.71.71,0,0,1-.34.74L44,49.17a.71.71,0,0,1-.81-.07l-3.09-2.59-2.86.77-1.37,3.79a.71.71,0,0,1-.67.47H30.74a.71.71,0,0,1-.61-.46l-1.37-3.79-2.86-.76-3.08,2.6a.71.71,0,0,1-.81.07l-2.3-1.32,2.4-2.06,3-2.58L31,44.8l1.36,3.75h1.19l1.35-3.76,5.87-1.58,3.06,2.57,1-.6-.71-3.93L48.48,37l3.93.7.59-1-2.58-3L52,27.7l3.75-1.36V25.15L52,23.8,50.4,17.93,53,14.87l-.6-1-3.93.71-4.3-4.3.7-3.93-1-.59L40.76,8.31,34.89,6.74,33.52,3H32.34L31,6.75,25.11,8.33,22.06,5.76l-1,.6.71,3.93-4.29,4.31-3.93-.7-.59,1,2.58,3-1.57,5.88-3.75,1.36V26.4l3.76,1.35,1.58,5.87-2.57,3.06L10.86,39l-1.3-2.25A.71.71,0,0,1,9.63,36l2.6-3.09L11.45,30,7.66,28.67A.71.71,0,0,1,7.19,28V23.61a.71.71,0,0,1,.47-.67l3.79-1.38.76-2.86L9.6,15.63a.71.71,0,0,1-.07-.81L11.72,11a.71.71,0,0,1,.74-.34l4,.7,2.09-2.1-.71-4a.71.71,0,0,1,.34-.74l3.79-2.2a.71.71,0,0,1,.81.07L25.84,5l2.86-.77L30.07.47A.71.71,0,0,1,30.73,0h4.39a.7.7,0,0,1,.67.47l1.38,3.79L40,5l3.08-2.6a.71.71,0,0,1,.81-.07l3.8,2.19a.71.71,0,0,1,.34.74l-.7,4,2.1,2.09,4-.71a.71.71,0,0,1,.74.34l2.2,3.79a.71.71,0,0,1-.07.81l-2.6,3.09.77,2.86,3.79,1.37A.71.71,0,0,1,58.73,23.55Zm-24.27,7,9.89-7.06A12.88,12.88,0,0,1,44.61,26a12.16,12.16,0,0,1-11.9,12.39A11.45,11.45,0,0,1,27,36.88L7.37,58.62a4.27,4.27,0,0,1-6.32,0,4.39,4.39,0,0,1,.17-5.87L21.58,30.34A12.74,12.74,0,0,1,20.82,26a12.16,12.16,0,0,1,11.9-12.39,11.47,11.47,0,0,1,6.5,2L28.75,23.13l.82,5.74ZM5.16,56.63,24.62,35.08a12.26,12.26,0,0,1-1.6-1.9L3.4,54.72a1.43,1.43,0,0,0-.14,1.86,1.29,1.29,0,0,0,1,.44A1.27,1.27,0,0,0,5.16,56.63Z"/></g></g></g></svg>