<svg xmlns="http://www.w3.org/2000/svg" viewBox="0 0 60 60"><defs><style>.cls-1{fill:#405980;}</style></defs><title>cycleCount</title><g id="Layer_4" data-name="Layer 4"><circle class="cls-1" cx="23" cy="7" r="2"/></g><g id="Layer_5" data-name="Layer 5"><polygon class="cls-1" points="19.23 21.23 13.99 26.46 11.28 23.75 9.51 25.52 13.99 30 21 23 19.23 21.23"/><polygon class="cls-1" points="19.23 32.23 13.99 37.46 11.28 34.75 9.51 36.52 13.99 41 21 33.99 19.23 32.23"/><polygon class="cls-1" points="19.23 43.23 13.99 48.46 11.28 45.75 9.51 47.52 13.99 52 21 44.99 19.23 43.23"/><polygon class="cls-1" points="50.98 39 53.88 32.4 46 33.79 50.98 39"/><polygon class="cls-1" points="35.02 33 40 38.21 32.12 39.6 35.02 33"/><path class="cls-1" d="M43,30a6,6,0,0,1,5.85,4.68l2.89-.79A9,9,0,0,0,36.31,30l2.08,2.17A6,6,0,0,1,43,30Z"/><path class="cls-1" d="M47.63,39.81a6,6,0,0,1-10.37-2.1l-3,.37A9,9,0,0,0,49.7,42Z"/><path class="cls-1" d="M60,36A17,17,0,0,0,46,19.28h0V9.86A3.87,3.87,0,0,0,42.14,6H30.91C30.35,2.61,27,0,23,0s-7.35,2.61-7.91,6H3.86A3.87,3.87,0,0,0,0,9.86V56.14A3.87,3.87,0,0,0,3.86,60H42.14A3.87,3.87,0,0,0,46,56.14V52.72h0A17,17,0,0,0,60,36ZM17.64,9l.41-2.51C18.38,4.5,20.5,3,23,3s4.62,1.5,4.95,3.49L28.36,9H30a7.5,7.5,0,0,1,6.57,5H9.43A7.5,7.5,0,0,1,16,9h1.64ZM43,56.14a.87.87,0,0,1-.86.86H3.86A.87.87,0,0,1,3,56.14V9.86A.87.87,0,0,1,3.86,9H9.15A10.43,10.43,0,0,0,6,16.47V17H40v-.5A10.43,10.43,0,0,0,36.85,9h5.29a.87.87,0,0,1,.86.86V19a17,17,0,0,0,0,34ZM43,50A14,14,0,1,1,57,36,14,14,0,0,1,43,50Z"/></g></svg>