<svg xmlns="http://www.w3.org/2000/svg" viewBox="0 0 60 60"><defs><style>.cls-1{fill:#fff;}.cls-2{fill:#405980;}</style></defs><title>home</title><g id="Layer_4" data-name="Layer 4"><g id="mask-2"><path id="path-1" class="cls-1" d="M30,0A30,30,0,1,1,0,30,30,30,0,0,1,30,0Zm0,57A27,27,0,1,0,3,30,27,27,0,0,0,30,57ZM49.81,25.57,48.19,28.1,46,26.57v18.5H33v-14H26v14H13V25.87l-2.5,1.75L8.88,25.09,29,11ZM43,42.06V24.47l-14-9.8-13,9.1v18.3h7v-14H36v14Zm1-23-5-3.5V12.3h5Z"/></g><g id="home"><g id="Combined-Shape"><path id="path-1-2" data-name="path-1" class="cls-2" d="M30,0A30,30,0,1,1,0,30,30,30,0,0,1,30,0Zm0,57A27,27,0,1,0,3,30,27,27,0,0,0,30,57ZM49.81,25.57,48.19,28.1,46,26.57v18.5H33v-14H26v14H13V25.87l-2.5,1.75L8.88,25.09,29,11ZM43,42.06V24.47l-14-9.8-13,9.1v18.3h7v-14H36v14Zm1-23-5-3.5V12h5Z"/></g></g></g></svg>