<svg xmlns="http://www.w3.org/2000/svg" viewBox="0 0 60 60"><defs><style>.cls-1{fill:#405980;}</style></defs><title>inventoryTransfer</title><g id="Layer_4" data-name="Layer 4"><polygon class="cls-1" points="45 37 45 40 51 40 49 37 45 37"/><path class="cls-1" d="M59.43,43,52.17,32.94A4,4,0,0,0,48.74,31H42V26a1,1,0,0,0-1-1H34.56A18.08,18.08,0,1,0,6,31.39V56h5.68a7,7,0,0,0,12.63,0H42.68a7,7,0,0,0,13-1H58a2,2,0,0,0,2-2V45.06A4,4,0,0,0,59.43,43ZM6.38,27.48a15,15,0,1,1,21.11,2.13A15,15,0,0,1,6.38,27.48Zm9,28.52a4.13,4.13,0,0,1-.57-.6h0a4,4,0,0,1-.4-.66l0-.07a3.91,3.91,0,0,1-.23-.66s0-.09,0-.14A3.92,3.92,0,0,1,14,53a4,4,0,0,1,8,0,3.92,3.92,0,0,1-.1.85s0,.09,0,.14a3.91,3.91,0,0,1-.23.66l0,.07a4,4,0,0,1-.4.66h0a4.13,4.13,0,0,1-.57.6,3.93,3.93,0,0,1-5.24,0ZM39,32V53H25a7,7,0,0,0-14,0H9V33.56A18,18,0,0,0,33,28h6ZM49,57a4,4,0,0,1-3.44-2,4.22,4.22,0,0,1-.34-.75c0-.1-.07-.2-.09-.3s0-.18-.06-.28a3.24,3.24,0,0,1,0-1.3c0-.13,0-.26.08-.38h0a4,4,0,0,1,7.72,0h0c0,.12.06.25.08.38a3.24,3.24,0,0,1,0,1.3c0,.09,0,.19-.06.28s-.06.2-.09.3a4.22,4.22,0,0,1-.34.75A4,4,0,0,1,49,57Zm8-5H55.92a7,7,0,0,0-13.84,0H42V34h6.74a1,1,0,0,1,.86.49l7.27,10.06a1,1,0,0,1,.14.51Z"/><polygon class="cls-1" points="21 17.99 26.99 13.49 20.99 8.99 21.03 11.99 9.99 11.99 9.99 14.99 21.02 14.99 21 17.99"/><polygon class="cls-1" points="25.99 20.99 14.99 20.99 14.99 17.99 8.99 22.49 14.99 26.99 14.99 23.99 25.99 23.99 25.99 20.99"/></g></svg>