<svg xmlns="http://www.w3.org/2000/svg" viewBox="0 0 60 60"><defs><style>.cls-1{fill:#fff;}.cls-2{fill:#405980;}</style></defs><title>inventory</title><g id="Layer_4" data-name="Layer 4"><g id="mask-2"><path id="path-1" class="cls-1" d="M35,22H30V38H45V22H40v3H35Zm9,19H39V57H54V41H49v3H44ZM31,41v3H26V41H21V57H36V41Zm8-22h9V38h9V60H0V38H9V19h9V0H39ZM27,38V22H22v3H17V22H12V38H27ZM18,57V41H13v3H8V41H3V57ZM26,3H21V19H36V3H31V6H26Z"/></g><g id="inventory"><g id="Combined-Shape"><path id="path-1-2" data-name="path-1" class="cls-2" d="M35,22H30V38H45V22H40v3H35Zm9,19H39V57H54V41H49v3H44ZM31,41v3H26V41H21V57H36V41Zm8-22h9V38h9V60H0V38H9V19h9V0H39ZM27,38V22H22v3H17V22H12V38H27ZM18,57V41H13v3H8V41H3V57ZM26,3H21V19H36V3H31V6H26Z"/></g></g></g></svg>