<svg xmlns="http://www.w3.org/2000/svg" viewBox="0 0 70 70"><defs><style>.cls-1{fill:#eda133;}.cls-2{fill:#f5452b;}.cls-3{fill:#4c9600;}.cls-4{fill:#68a5d8;}.cls-5{fill:#fff;}</style></defs><title>InventoryStatusChange</title><g id="Layer_2_695" data-name="Layer 2,695"><path class="cls-1" d="M0,0V33H33V0Z"/><path class="cls-2" d="M0,0V33H33V0Z"/><path class="cls-1" d="M37,37V70H70V37Z"/><path class="cls-3" d="M37,37V70H70V37Z"/><polygon class="cls-4" points="40.65 13.46 52.67 25.48 49.02 29 59 29 59 18.96 55.5 22.65 43.48 10.63 40.65 13.46"/><polygon class="cls-4" points="26.54 57.35 14.52 45.33 11 48.98 11 39 21.04 39 17.35 42.5 29.37 54.52 26.54 57.35"/><polygon class="cls-5" points="61.73 46.08 51.13 56.68 45.98 51.54 43.86 53.66 51.13 60.92 53.25 58.8 63.85 48.2 61.73 46.08"/><polygon class="cls-5" points="25 10.12 22.88 8 16.52 14.36 10.15 8 8.03 10.12 14.39 16.48 8.03 22.85 10.15 24.97 16.52 18.61 22.88 24.97 25 22.85 18.64 16.48 25 10.12"/></g></svg>