<svg xmlns="http://www.w3.org/2000/svg" viewBox="0 0 60 60"><defs><style>.cls-1{fill:#405980;}</style></defs><title>picking</title><g id="Layer_4" data-name="Layer 4"><path class="cls-1" d="M25.54,24.7l6.28,17.25A10.44,10.44,0,0,1,34,44l25-9.1L50.83,12.3l-3.76,1.37L43.31,15,37.84,0,31.26,2.39,25.62,4.45,19,6.84l5.47,15Zm18.79-6.84,3.76-1.37.94-.34,6.16,16.92L34.52,40.58,28.36,23.67l7.52-2.74,1.37,3.76,5.64-2.05-1.37-3.76ZM26.65,7.27,28,11,33.65,9,32.29,5.21,36,3.85l4.45,12.21-5.64,2.05-7.52,2.74L22.89,8.63Z"/><path class="cls-1" d="M20.31,41.76a10.44,10.44,0,0,1,2-1c.26-.09.52-.17.78-.24L22.9,32l2.95,8.09a10.52,10.52,0,0,1,3.39.53L15.8,3.77a2,2,0,0,0-2.56-1.19L1.49,6.85a1.5,1.5,0,0,0,1,2.82L12.85,5.9a.5.5,0,0,1,.64.3L15,10.43l4.79,13.16Z"/><path class="cls-1" d="M25.5,43A8.5,8.5,0,1,0,34,51.5,8.5,8.5,0,0,0,25.5,43Zm0,14A5.5,5.5,0,1,1,31,51.5,5.51,5.51,0,0,1,25.5,57Z"/><path class="cls-1" d="M56,38.1,35.18,45.67A10.64,10.64,0,0,1,35.8,47a10.34,10.34,0,0,1,.4,1.45L55.11,41.6A1.73,1.73,0,0,0,56.3,39Z"/></g></svg>