<svg xmlns="http://www.w3.org/2000/svg" viewBox="0 0 60 60"><defs><style>.cls-1{fill:#fff;}.cls-2{fill:#405980;}</style></defs><title>postItemReceipt</title><g id="Layer_4" data-name="Layer 4"><g id="mask-2"><path id="path-1" class="cls-1" d="M44.76,18H30V3.24L29.76,3H3V57H45V42.7l3-3V57a3,3,0,0,1-3,3H3a3,3,0,0,1-3-3V3A3,3,0,0,1,3,0H31L48,17v7.92l-3,3V18.24ZM20,24H10V46H31.3l2,2H8V22H39V33.92l-1.82,1.82L37,35.56V24H27v3H20ZM8,8V6H24V8ZM8,53V51H39v2ZM8,12V10H24v2Zm0,4V14H19v2ZM37.18,40,56.82,20.34l2.84,3.45L36.5,47,24.7,35.16l3.83-3.83Z"/></g><g id="postItemReceipt"><g id="Combined-Shape"><path id="path-1-2" data-name="path-1" class="cls-2" d="M44.76,18H30V3.24L29.76,3H3V57H45V42.7l3-3V57a3,3,0,0,1-3,3H3a3,3,0,0,1-3-3V3A3,3,0,0,1,3,0H31L48,17v7.92l-3,3V18.24ZM20,24H10V46H31.3l2,2H8V22H39V33.92l-1.82,1.82L37,35.56V24H27v3H20ZM8,8V6H24V8ZM8,53V51H39v2ZM8,12V10H24v2Zm0,4V14H19v2ZM37.18,40,56.82,20.34l2.84,3.45L36.5,47,24.7,35.16l3.83-3.83Z"/></g></g></g></svg>