<svg xmlns="http://www.w3.org/2000/svg" viewBox="0 0 60 60"><defs><style>.cls-1{fill:#fff;}.cls-2{fill:#405980;}</style></defs><title>purchaseOrder</title><g id="Layer_4" data-name="Layer 4"><g id="mask-2"><path id="path-1" class="cls-1" d="M7,8V6H20V8Zm0,5V11H20v2ZM49,33H60V60H30V33H49Zm0,8H41V36H33V57H57V36H49ZM7,22H35v9H33V24H28V46H7ZM21,44h5V24H21Zm-6,0h4V24H15ZM9,44h4V24H9ZM25,0,42,17V31H39V18.24L38.76,18H24V3.24L23.76,3H3V50H28v3H3a3,3,0,0,1-3-3V3A3,3,0,0,1,3,0Z"/></g><g id="purchaseOrder"><g id="Combined-Shape"><path id="path-1-2" data-name="path-1" class="cls-2" d="M7,8V6H20V8Zm0,5V11H20v2ZM49,33H60V60H30V33H49Zm0,8H41V36H33V57H57V36H49ZM7,22H35v9H33V24H28V46H7ZM21,44h5V24H21Zm-6,0h4V24H15ZM9,44h4V24H9ZM25,0,42,17V31H39V18.24L38.76,18H24V3.24L23.76,3H3V50H28v3H3a3,3,0,0,1-3-3V3A3,3,0,0,1,3,0Z"/></g></g></g></svg>