<svg xmlns="http://www.w3.org/2000/svg" viewBox="0 0 60 60"><defs><style>.cls-1{fill:#fff;}.cls-2{fill:#405980;}</style></defs><title>putAway</title><g id="Layer_4" data-name="Layer 4"><g id="mask-2"><path id="path-1" class="cls-1" d="M0,27H22V6H0ZM14,13V9h5V24H3V9H8v4ZM0,55V34H22V55ZM14,41H8V37H3V52H19V37H14ZM25,55V34H47V55Zm19-3V37H39v4H33V37H28V52ZM0,60V57H47v3ZM0,32V29H47v3ZM0,4V1H47V4ZM38,6H60V27H38V20h3v4H57V9H52v4H46V9H41v4H38Zm-8,9H44v3H30l4.31,5-2,2L25,16.5,32.31,8l2,2Z"/></g><g id="putAway"><g id="Combined-Shape"><path id="path-1-2" data-name="path-1" class="cls-2" d="M0,27H22V6H0ZM14,13V9h5V24H3V9H8v4ZM0,55V34H22V55ZM14,41H8V37H3V52H19V37H14ZM25,55V34H47V55Zm19-3V37H39v4H33V37H28V52ZM0,60V57H47v3ZM0,32V29H47v3ZM0,4V1H47V4ZM38,6H60V27H38V20h3v4H57V9H52v4H46V9H41v4H38Zm-8,9H44v3H30l4.31,5-2,2L25,16.5,32.31,8l2,2Z"/></g></g></g></svg>