<svg xmlns="http://www.w3.org/2000/svg" viewBox="0 0 60 60"><defs><style>.cls-1{fill:#fff;}.cls-2{fill:#405980;}</style></defs><title>receiving</title><g id="Layer_4" data-name="Layer 4"><g id="mask-2"><path id="path-1" class="cls-1" d="M41,36H33V57H57V36H49v5H41ZM25,38H15l4,5-2,2-7-8.5L17,28l2,2-4,5H25Zm5,22V33H60V60ZM22,0,45,10V30H42V18H3V50H27v3H0V10ZM17,10l5,5,5-5L22,5Z"/></g><g id="receiving"><g id="Combined-Shape"><path id="path-1-2" data-name="path-1" class="cls-2" d="M41,36H33V57H57V36H49v5H41ZM25,38H15l4,5-2,2-7-8.5L17,28l2,2-4,5H25Zm5,22V33H60V60ZM22,0,45,10V30H42V18H3V50H27v3H0V10ZM17,10l5,5,5-5L22,5Z"/></g></g></g></svg>