<svg xmlns="http://www.w3.org/2000/svg" viewBox="0 0 60 60"><defs><style>.cls-1{fill:#fff;}.cls-2{fill:#405980;}</style></defs><title>returns</title><g id="Layer_4" data-name="Layer 4"><g id="mask-2"><path id="path-1" class="cls-1" d="M23,26v6.65a9.88,9.88,0,0,1-3,1.15V23h7.95c0,.33.05.66.05,1a10,10,0,0,1-.2,2Zm21-3H60V60H20V43.9a20,20,0,0,0,3-.56V57H57V26H44v5H36.71A19.87,19.87,0,0,0,38,24c0-.34,0-.67-.05-1ZM7,42V36H18a12,12,0,0,0,0-24H7v6L0,9,7,0V6H18a18,18,0,0,1,0,36Z"/></g><g id="returns"><g id="Combined-Shape"><path id="path-1-2" data-name="path-1" class="cls-2" d="M23,26v6.65a9.88,9.88,0,0,1-3,1.15V23h7.95c0,.33.05.66.05,1a10,10,0,0,1-.2,2Zm21-3H60V60H20V43.9a20,20,0,0,0,3-.56V57H57V26H44v5H36.71A19.87,19.87,0,0,0,38,24c0-.34,0-.67-.05-1ZM7,42V36H18a12,12,0,0,0,0-24H7v6L0,9,7,0V6H18a18,18,0,0,1,0,36Z"/></g></g></g></svg>