<svg xmlns="http://www.w3.org/2000/svg" viewBox="0 0 60 60"><defs><style>.cls-1{fill:#405980;}</style></defs><title>searchInventory</title><g id="Layer_4" data-name="Layer 4"><rect class="cls-1" x="23" y="23" width="2" height="15"/><rect class="cls-1" x="32" y="23" width="2" height="15"/><rect class="cls-1" x="35" y="23" width="1" height="15"/><rect class="cls-1" x="26" y="23" width="3" height="15"/><rect class="cls-1" x="37" y="23" width="3" height="15"/><rect class="cls-1" x="30" y="23" width="1" height="15"/><path class="cls-1" d="M59.56,57.44,47.14,45.15A1.5,1.5,0,0,0,45,47.27L57.44,59.56a1.5,1.5,0,1,0,2.12-2.12Z"/><path class="cls-1" d="M44.58,17.42A18.48,18.48,0,0,0,40,14.07V0H0V38H14.6a18.49,18.49,0,1,0,30-20.58ZM3,35V3H14V7H26V3H37v9.84A18.48,18.48,0,0,0,13.57,35Zm17.54,6.46a15.5,15.5,0,1,1,21.92,0A15.52,15.52,0,0,1,20.54,41.46Z"/></g></svg>