<svg xmlns="http://www.w3.org/2000/svg" viewBox="0 0 60 60"><defs><style>.cls-1{fill:#405980;}</style></defs><title>stageBinTransfer</title><g id="Layer_5" data-name="Layer 5"><rect class="cls-1" y="9" width="3" height="6"/><rect class="cls-1" y="18" width="3" height="6"/><polygon class="cls-1" points="3 27 0 27 0 30 0 33 3 33 6 33 6 30 3 30 3 27"/><polygon class="cls-1" points="0 0 0 3 0 6 3 6 3 3 6 3 6 0 3 0 0 0"/><rect class="cls-1" x="9" width="6" height="3"/><rect class="cls-1" x="18" width="6" height="3"/><polygon class="cls-1" points="30 6 33 6 33 3 33 0 30 0 27 0 27 3 30 3 30 6"/><polygon class="cls-1" points="30 54 27 54 27 57 27 60 30 60 33 60 33 57 30 57 30 54"/><rect class="cls-1" x="57" y="36" width="3" height="6"/><rect class="cls-1" x="57" y="45" width="3" height="6"/><polygon class="cls-1" points="57 57 54 57 54 60 57 60 60 60 60 57 60 54 57 54 57 57"/><rect class="cls-1" x="36" y="57" width="6" height="3"/><rect class="cls-1" x="45" y="57" width="6" height="3"/><polygon class="cls-1" points="57 27 54 27 54 30 57 30 57 33 60 33 60 30 60 27 57 27"/><polygon class="cls-1" points="39.04 25.3 38.77 28.89 30.28 20.41 28.16 22.53 36.65 31.01 33.1 31.29 33.1 34.11 41.24 33.49 41.87 25.3 39.04 25.3"/><polygon class="cls-1" points="28.92 30.73 28.92 27.91 20.73 28.54 20.11 36.68 22.94 36.68 23.21 33.13 30.99 40.91 33.11 38.79 25.33 31.01 28.92 30.73"/><path class="cls-1" d="M48.73,34A18,18,0,0,0,49,31c0-.34,0-.67-.05-1H51V27H48.54v0A18,18,0,0,0,33,13.12h0V9H30v4.05c.33,0,.66-.05,1-.05.52,0,1,0,1.55.08C32,13,31.52,13,31,13a17.92,17.92,0,0,0-5,.73h0V7H7V26h6.72v0A17.92,17.92,0,0,0,13,31c0,.52,0,1,.08,1.55C13,32,13,31.52,13,31c0-.34,0-.67.05-1H9v3h4.12A18,18,0,0,0,27,48.54h0V51h3V48.95h0c.33,0,.66.05,1,.05a18,18,0,0,0,3-.27h0V53H53V34H48.73Zm.08-5.48,0-.17ZM10,23V10h4v2h5V10h4v4.89l.16-.07a18.09,18.09,0,0,0-8.34,8.34l.07-.16Zm14.66-8.82-.26.09ZM14.27,24.4l-.1.26Zm14.1,24.38.17,0ZM16,31A15,15,0,1,1,31,46,15,15,0,0,1,16,31ZM50,50H37V48l-.06,0a18.06,18.06,0,0,0,11-11L48,37h2ZM35.44,48.42l.17,0Zm13-13,0,.17Z"/></g></svg>