<svg xmlns="http://www.w3.org/2000/svg" viewBox="0 0 60 60"><defs><style>.cls-1{fill:#405980;}</style></defs><title>transferOrder</title><g id="Layer_4" data-name="Layer 4"><path id="path-1" class="cls-1" d="M7,8V6H20V8Zm0,4V10H20v2Zm0,4V14H17v2Zm8,28v2H7V35h8v2H9v7Zm0-14v2H7V23H35v6H33V25H9v5ZM25,0,42,17V29H39V19H24V3.24L23.76,3H3V50H15v3H3a3,3,0,0,1-3-3V3A3,3,0,0,1,3,0Z"/><polygon class="cls-1" points="35.5 36.75 40 42 35.5 47.25 34.21 45.96 36.74 43 25 43 25 41 36.74 41 34.21 38.04 35.5 36.75"/><path class="cls-1" d="M29.32,53a2.45,2.45,0,0,1,0,3H48.51a2.45,2.45,0,0,1,0-3Z"/><path class="cls-1" d="M59.84,46.88l-6.25-9A2,2,0,0,0,51.9,37H47V32a1,1,0,0,0-1-1H18a1,1,0,0,0-1,1V56h8.35a2.45,2.45,0,0,1,0-3H20V34H44v5a1,1,0,0,0,1,1h6.35L57,48v5H52.49a2.45,2.45,0,0,1,0,3H59a1,1,0,0,0,1-1V47.42A1,1,0,0,0,59.84,46.88Z"/><path class="cls-1" d="M27.33,49a5.5,5.5,0,1,0,5.5,5.5A5.5,5.5,0,0,0,27.33,49Zm0,8a2.5,2.5,0,1,1,2.5-2.5A2.5,2.5,0,0,1,27.33,57Z"/><path class="cls-1" d="M50.5,49A5.5,5.5,0,1,0,56,54.5,5.5,5.5,0,0,0,50.5,49Zm0,8A2.5,2.5,0,1,1,53,54.5,2.5,2.5,0,0,1,50.5,57Z"/><polygon class="cls-1" points="47 42 50 42 52 45 47 45 47 42"/></g></svg>