<svg xmlns="http://www.w3.org/2000/svg" viewBox="0 0 60 60"><defs><style>.cls-1{fill:#fff;}.cls-2{fill:#405980;}</style></defs><title>warehouseLocation</title><g id="Layer_4" data-name="Layer 4"><g id="mask-2"><path id="path-1" class="cls-1" d="M42.5,45,47,53H13l4.5-8,10.13-4.05c.2.37.4.73.59,1.1l1.63,3.2,1.87-3.07L32.44,41ZM18,51H42l-2-4H20ZM30,0A13.64,13.64,0,0,1,43.64,13.64c0,4-2.14,7.64-4,11.06-3,5.52-6.36,11.07-9.62,16.44-2.73-5.37-6.61-10.92-9.62-16.44-1.87-3.43-4-7-4-11.06A13.24,13.24,0,0,1,30,0Zm7.38,22.55c1.67-3,3.26-5.93,3.26-8.92A10.65,10.65,0,0,0,30,3,10.29,10.29,0,0,0,19.36,13.64c0,3,1.58,5.87,3.26,8.92l.39.71c1.32,2.41,2.84,4.9,4.32,7.3.93,1.51,1.88,3.05,2.78,4.59,2.4-4,4.71-7.93,6.87-11.89ZM34.5,13A4.5,4.5,0,1,1,30,8.5,4.5,4.5,0,0,1,34.5,13ZM48,35,60,60H0L12,35H24.19q.93,1.52,1.8,3H14L5,57H55L46,38H34.24L36,35Z"/></g><g id="warehouseLocaton"><g id="Combined-Shape"><path id="path-1-2" data-name="path-1" class="cls-2" d="M42.5,45,47,53H13l4.5-8,10.13-4.05c.2.37.4.73.59,1.1l1.63,3.2,1.87-3.07L32.44,41ZM18,51H42l-2-4H20ZM30,0A13.64,13.64,0,0,1,43.64,13.64c0,4-2.14,7.64-4,11.06-3,5.52-6.36,11.07-9.62,16.44-2.73-5.37-6.61-10.92-9.62-16.44-1.87-3.43-4-7-4-11.06A13.24,13.24,0,0,1,30,0Zm7.38,22.55c1.67-3,3.26-5.93,3.26-8.92A10.65,10.65,0,0,0,30,3,10.29,10.29,0,0,0,19.36,13.64c0,3,1.58,5.87,3.26,8.92l.39.71c1.32,2.41,2.84,4.9,4.32,7.3.93,1.51,1.88,3.05,2.78,4.59,2.4-4,4.71-7.93,6.87-11.89ZM34.5,13A4.5,4.5,0,1,1,30,8.5,4.5,4.5,0,0,1,34.5,13ZM48,35,60,60H0L12,35H24.19q.93,1.52,1.8,3H14L5,57H55L46,38H34.24L36,35Z"/></g></g></g></svg>