<svg id="logo" xmlns="http://www.w3.org/2000/svg" width="2.51in" height="0.18in" viewBox="0 0 180.95 13.13">
  <defs>
    <style>
      .cls-1 {
        fill: #ed1c24;
      }
    </style>
  </defs>
  <title>O-NetSuite-horiz-rgb</title>
  <g>
    <path class="cls-1" d="M55.55,21H62.1l-3.46-5.58L52.29,25.53h-2.9l7.73-12.1a1.84,1.84,0,0,1,3,0l7.75,12.12H65l-1.36-2.25H57L55.55,21m30,2.25V12.77H83.13V24.31a1.18,1.18,0,0,0,.36.85,1.24,1.24,0,0,0,.89.37H95.57L97,23.28H85.59M45,21.4a4.32,4.32,0,0,0,0-8.63H34.25V25.53H36.7V15h8.12a2.07,2.07,0,0,1,0,4.13H37.9l7.33,6.38h3.56L43.87,21.4H45M19.15,25.53h7.42a6.38,6.38,0,0,0,0-12.76H19.15a6.38,6.38,0,1,0,0,12.76m7.25-2.25H19.31a4.13,4.13,0,0,1,0-8.26H26.4a4.13,4.13,0,1,1,0,8.26M73,25.53h7.57L82,23.28H73.17a4.13,4.13,0,1,1,0-8.26h7.2l1.45-2.26H73a6.38,6.38,0,1,0,0,12.76m30-2.25a4.13,4.13,0,0,1-4-3h10.49L111,18H99a4.13,4.13,0,0,1,4-3h7.2l1.44-2.26h-8.8a6.38,6.38,0,0,0,0,12.76h7.57l1.44-2.25H103m10-9.15a1.13,1.13,0,1,1,1.13,1.13A1.13,1.13,0,0,1,113,14.13m1.13,1.43a1.43,1.43,0,1,0-1.44-1.43,1.42,1.42,0,0,0,1.44,1.43M114,13.28a1.45,1.45,0,0,1,.43,0,.45.45,0,0,1,.3.45,1.18,1.18,0,0,1,0,.13.4.4,0,0,1-.2.28l-.06,0,.37.67h-.36l-.33-.62h-.22v.62h-.32V13.28h.4m.11.73a.28.28,0,0,0,.26-.1.16.16,0,0,0,0-.13.22.22,0,0,0-.12-.2.73.73,0,0,0-.3,0h-.08V14h.2" transform="translate(-12.77 -12.64)"/>
    <g>
      <polygon points="115.85 10.42 112 2.34 111.98 2.31 108.64 2.31 108.64 12.94 110.87 12.94 110.87 4.38 114.85 12.91 114.86 12.94 118.04 12.94 118.04 2.31 115.85 2.31 115.85 10.42"/>
      <polygon points="122.67 8.35 127.16 8.35 127.16 6.53 122.67 6.53 122.67 4.13 127.46 4.13 127.46 2.31 120.32 2.31 120.32 12.94 127.62 12.94 127.62 11.09 122.67 11.09 122.67 8.35"/>
      <polygon points="128.73 2.31 128.73 4.16 131.86 4.16 131.86 12.94 134.23 12.94 134.23 4.16 137.36 4.16 137.36 2.31 128.73 2.31"/>
      <g>
        <path d="M152.82,22.46c0,.73.12,2.08,2.53,2.08,2.18,0,2.46-1.35,2.46-1.88,0-1.18-.95-1.41-2.42-1.78a9.35,9.35,0,0,1-2.85-.93,2.37,2.37,0,0,1-1.09-2.07c0-2.14,2-3.07,4-3.07a4.11,4.11,0,0,1,3,1,2.7,2.7,0,0,1,.64,1.79h-1.51c-.07-1.31-1.18-1.6-2.21-1.6-1.46,0-2.33.66-2.33,1.7s.61,1.25,1.89,1.56c2.5.64,2.78.7,3.39,1.11a2.41,2.41,0,0,1,1,2.1c0,1.86-1.46,3.28-4.15,3.28a4.23,4.23,0,0,1-3.26-1.19,3.28,3.28,0,0,1-.61-2.12Z" transform="translate(-12.77 -12.64)"/>
        <path d="M163.09,15v6.51a3,3,0,0,0,.47,1.89,2.88,2.88,0,0,0,2.4,1,2.59,2.59,0,0,0,2.84-3V15h1.41V21.5a4.27,4.27,0,0,1-.86,2.79A4.31,4.31,0,0,1,166,25.75a4.52,4.52,0,0,1-3.71-1.67,4.18,4.18,0,0,1-.61-2.65V15Z" transform="translate(-12.77 -12.64)"/>
        <path d="M173.23,15h1.46V25.53h-1.46Z" transform="translate(-12.77 -12.64)"/>
        <path d="M180.31,25.53V16.26h-3.52V15h8.49v1.24h-3.52v9.27Z" transform="translate(-12.77 -12.64)"/>
        <path d="M187,15h6.59v1.24h-5.14v3.28h4.89v1.22h-4.89v3.49h5.25v1.28H187Z" transform="translate(-12.77 -12.64)"/>
      </g>
    </g>
  </g>
</svg>
