<svg xmlns="http://www.w3.org/2000/svg" viewBox="0 0 60 60"><defs><style>.cls-1{fill:#405980;}</style></defs><title>workOrders</title><g id="Layer_4" data-name="Layer 4"><path class="cls-1" d="M58.32,9.26l-8.65,8.65-3.82-.76-.76-3.82,8.65-8.65A12.48,12.48,0,0,0,36.34,21.11h0l-3,3,2.12,2.12L40,21.71l-1-1.95a9.4,9.4,0,0,1-1-4.26A9.51,9.51,0,0,1,47.5,6l.65,0-6.32,6.32L43.3,19.7l7.36,1.47L57,14.85q0,.32,0,.65A9.51,9.51,0,0,1,47.5,25a9.37,9.37,0,0,1-3.8-.83l-1.87-.83L37.17,28l2.12,2.12,3.19-3.18a12.37,12.37,0,0,0,5,1.08A12.49,12.49,0,0,0,58.32,9.26Z"/><path class="cls-1" d="M8.45,56.55a1.27,1.27,0,0,1-1.88,0,1.39,1.39,0,0,1,.11-1.79L21.23,40.32,19.1,38.2,4.5,52.67a4.39,4.39,0,0,0-.17,5.87,4.27,4.27,0,0,0,6.32,0L25.11,44.2,23,42.08Z"/><path class="cls-1" d="M33,28l-3.54-3.54a3,3,0,0,0-4.24,0l-1.4,1.4L12,14.11,10.54,9.87,2.76,4.92-.07,7.75l4.95,7.78,4.24,1.41L21,28.7l-1.43,1.43a3,3,0,0,0,0,4.24l3.54,3.54L44.28,59.12a3,3,0,0,0,4.24,0l5.66-5.66a3,3,0,0,0,0-4.24ZM46.4,57,25.18,35.79l-3.54-3.54L27.3,26.6l3.54,3.54L52.05,51.35Z"/></g></svg>